<svg viewBox="0 0 980 567" xmlns="http://www.w3.org/2000/svg" font-family="'Segoe UI', Verdana, sans-serif"><rect x="0" y="0" width="980" height="567" rx="14" fill="#fbfcfc" stroke="#d7e3e8" stroke-width="2"/><rect x="10" y="8" width="960" height="30" rx="6" fill="#00688f"/><text x="490.0" y="29" text-anchor="middle" font-size="14.5" font-weight="700" fill="#ffffff">Simbologia de Mapa de Processo — Referência Rápida</text><rect x="16.0" y="48" width="183.2" height="110" rx="10" fill="#ffffff" stroke="#d7e3e8" stroke-width="1.4"/><rect x="67.44800000000001" y="71.14" width="80.30399999999999" height="40.120000000000005" fill="#00688f22" stroke="#00688f" stroke-width="2"/><text x="107.6" y="128.95999999999998" text-anchor="middle" font-size="10.5" font-weight="600" fill="#1a1a2e">Processo</text><rect x="207.2" y="48" width="183.2" height="110" rx="10" fill="#ffffff" stroke="#d7e3e8" stroke-width="1.4"/><rect x="258.64799999999997" y="71.14" width="80.30399999999999" height="40.120000000000005" rx="11.233600000000003" fill="#31803a22" stroke="#31803a" stroke-width="2"/><text x="298.79999999999995" y="128.95999999999998" text-anchor="middle" font-size="10.5" font-weight="600" fill="#1a1a2e">Processo Alternativo</text><rect x="398.4" y="48" width="183.2" height="110" rx="10" fill="#ffffff" stroke="#d7e3e8" stroke-width="1.4"/><rect x="449.848" y="71.14" width="80.30399999999999" height="40.120000000000005" fill="#c2650c22" stroke="#c2650c" stroke-width="2"/><line x1="461.09056000000004" y1="71.14" x2="461.09056000000004" y2="111.26" stroke="#c2650c" stroke-width="1.6"/><line x1="518.90944" y1="71.14" x2="518.90944" y2="111.26" stroke="#c2650c" stroke-width="1.6"/><text x="490.0" y="128.95999999999998" text-anchor="middle" font-size="10.5" font-weight="600" fill="#1a1a2e">Processo Predefinido</text><rect x="589.5999999999999" y="48" width="183.2" height="110" rx="10" fill="#ffffff" stroke="#d7e3e8" stroke-width="1.4"/><rect x="641.0479999999999" y="71.14" width="80.30399999999999" height="40.120000000000005" rx="20.060000000000002" fill="#a5203a22" stroke="#a5203a" stroke-width="2"/><text x="681.1999999999999" y="128.95999999999998" text-anchor="middle" font-size="10.5" font-weight="600" fill="#1a1a2e">Terminador</text><rect x="780.8" y="48" width="183.2" height="110" rx="10" fill="#ffffff" stroke="#d7e3e8" stroke-width="1.4"/><polygon points="846.7027199999999,71.14 898.0972800000001,71.14 912.552,91.2 898.0972800000001,111.26 846.7027199999999,111.26 832.2479999999999,91.2" fill="#6a3d9a22" stroke="#6a3d9a" stroke-width="2"/><text x="872.4" y="128.95999999999998" text-anchor="middle" font-size="10.5" font-weight="600" fill="#1a1a2e">Preparação</text><rect x="16.0" y="166" width="183.2" height="110" rx="10" fill="#ffffff" stroke="#d7e3e8" stroke-width="1.4"/><polygon points="67.44800000000001,189.14 147.75199999999998,189.14 134.90336,229.26 80.29664000000001,229.26" fill="#00688f22" stroke="#00688f" stroke-width="2"/><text x="107.6" y="246.95999999999998" text-anchor="middle" font-size="10.5" font-weight="600" fill="#1a1a2e">Operação Manual</text><rect x="207.2" y="166" width="183.2" height="110" rx="10" fill="#ffffff" stroke="#d7e3e8" stroke-width="1.4"/><path d="M 258.64799999999997 189.14 L 298.79999999999995 189.14 A 20.060000000000002 20.060000000000002 0 0 1 298.79999999999995 229.26 L 258.64799999999997 229.26 Z" fill="#00688f22" stroke="#00688f" stroke-width="2"/><text x="298.79999999999995" y="246.95999999999998" text-anchor="middle" font-size="10.5" font-weight="600" fill="#1a1a2e">Atraso</text><rect x="398.4" y="166" width="183.2" height="110" rx="10" fill="#ffffff" stroke="#d7e3e8" stroke-width="1.4"/><polygon points="490.0,189.14 530.152,209.2 490.0,229.26 449.848,209.2" fill="#31803a22" stroke="#31803a" stroke-width="2"/><text x="490.0" y="246.95999999999998" text-anchor="middle" font-size="10.5" font-weight="600" fill="#1a1a2e">Decisão</text><rect x="589.5999999999999" y="166" width="183.2" height="110" rx="10" fill="#ffffff" stroke="#d7e3e8" stroke-width="1.4"/><circle cx="681.1999999999999" cy="209.2" r="20.060000000000002" fill="#c2650c22" stroke="#c2650c" stroke-width="2"/><text x="681.1999999999999" y="246.95999999999998" text-anchor="middle" font-size="10.5" font-weight="600" fill="#1a1a2e">Conector</text><rect x="780.8" y="166" width="183.2" height="110" rx="10" fill="#ffffff" stroke="#d7e3e8" stroke-width="1.4"/><path d="M 832.2479999999999 189.14 L 912.552 189.14 L 912.552 223.26 Q 884.4456 239.26 872.4 223.26 Q 860.3543999999999 211.26 832.2479999999999 223.26 Z" fill="#a5203a22" stroke="#a5203a" stroke-width="2"/><text x="872.4" y="246.95999999999998" text-anchor="middle" font-size="10.5" font-weight="600" fill="#1a1a2e">Documento</text><rect x="16.0" y="284" width="183.2" height="110" rx="10" fill="#ffffff" stroke="#d7e3e8" stroke-width="1.4"/><path d="M 75.44800000000001 315.14 L 147.75199999999998 315.14 L 147.75199999999998 342.26 Q 111.6 354.26 75.44800000000001 342.26 Z" fill="#fbfcfc" stroke="#6a3d9a" stroke-width="1.8"/><path d="M 71.44800000000001 311.14 L 143.75199999999998 311.14 L 143.75199999999998 338.26 Q 107.6 350.26 71.44800000000001 338.26 Z" fill="#fbfcfc" stroke="#6a3d9a" stroke-width="1.8"/><path d="M 67.44800000000001 307.14 L 139.75199999999998 307.14 L 139.75199999999998 334.26 Q 103.6 346.26 67.44800000000001 334.26 Z" fill="#fbfcfc" stroke="#6a3d9a" stroke-width="1.8"/><text x="107.6" y="364.96" text-anchor="middle" font-size="10.5" font-weight="600" fill="#1a1a2e">Múltiplos Documentos</text><rect x="207.2" y="284" width="183.2" height="110" rx="10" fill="#ffffff" stroke="#d7e3e8" stroke-width="1.4"/><path d="M 264.64799999999997 307.14 L 324.95199999999994 307.14 Q 338.95199999999994 327.2 324.95199999999994 347.26 L 264.64799999999997 347.26 Q 254.64799999999997 327.2 264.64799999999997 307.14 Z" fill="#00688f22" stroke="#00688f" stroke-width="2"/><text x="298.79999999999995" y="364.96" text-anchor="middle" font-size="10.5" font-weight="600" fill="#1a1a2e">Exibição</text><rect x="398.4" y="284" width="183.2" height="110" rx="10" fill="#ffffff" stroke="#d7e3e8" stroke-width="1.4"/><polygon points="462.69664,307.14 530.152,307.14 517.30336,347.26 449.848,347.26" fill="#00688f22" stroke="#00688f" stroke-width="2"/><text x="490.0" y="364.96" text-anchor="middle" font-size="10.5" font-weight="600" fill="#1a1a2e">Dados</text><rect x="589.5999999999999" y="284" width="183.2" height="110" rx="10" fill="#ffffff" stroke="#d7e3e8" stroke-width="1.4"/><polygon points="641.0479999999999,318.3736 721.352,307.14 721.352,347.26 641.0479999999999,347.26" fill="#31803a22" stroke="#31803a" stroke-width="2"/><text x="681.1999999999999" y="364.96" text-anchor="middle" font-size="10.5" font-weight="600" fill="#1a1a2e">Entrada Manual</text><rect x="780.8" y="284" width="183.2" height="110" rx="10" fill="#ffffff" stroke="#d7e3e8" stroke-width="1.4"/><polygon points="832.2479999999999,307.14 886.85472,307.14 912.552,327.2 886.85472,347.26 832.2479999999999,347.26" fill="#c2650c22" stroke="#c2650c" stroke-width="2"/><text x="872.4" y="364.96" text-anchor="middle" font-size="10.5" font-weight="600" fill="#1a1a2e">Conector Fora de Página</text><rect x="16.0" y="402" width="183.2" height="110" rx="10" fill="#ffffff" stroke="#d7e3e8" stroke-width="1.4"/><circle cx="107.6" cy="445.2" r="20.060000000000002" fill="#a5203a22" stroke="#a5203a" stroke-width="2"/><line x1="95.564" y1="445.2" x2="119.636" y2="445.2" stroke="#a5203a" stroke-width="1.8"/><line x1="107.6" y1="433.164" x2="107.6" y2="457.236" stroke="#a5203a" stroke-width="1.8"/><text x="107.6" y="482.96" text-anchor="middle" font-size="10.5" font-weight="600" fill="#1a1a2e">Ou</text><rect x="207.2" y="402" width="183.2" height="110" rx="10" fill="#ffffff" stroke="#d7e3e8" stroke-width="1.4"/><polygon points="258.64799999999997,425.14 338.95199999999994,425.14 298.79999999999995,465.26" fill="#6a3d9a22" stroke="#6a3d9a" stroke-width="2"/><text x="298.79999999999995" y="482.96" text-anchor="middle" font-size="10.5" font-weight="600" fill="#1a1a2e">Mesclagem</text><rect x="398.4" y="402" width="183.2" height="110" rx="10" fill="#ffffff" stroke="#d7e3e8" stroke-width="1.4"/><polygon points="490.0,425.14 530.152,465.26 449.848,465.26" fill="#00688f22" stroke="#00688f" stroke-width="2"/><text x="490.0" y="482.96" text-anchor="middle" font-size="10.5" font-weight="600" fill="#1a1a2e">Extração</text><rect x="589.5999999999999" y="402" width="183.2" height="110" rx="10" fill="#ffffff" stroke="#d7e3e8" stroke-width="1.4"/><polygon points="641.0479999999999,425.14 721.352,425.14 681.1999999999999,445.2 721.352,465.26 641.0479999999999,465.26 681.1999999999999,445.2" fill="#00688f22" stroke="#00688f" stroke-width="2"/><text x="681.1999999999999" y="482.96" text-anchor="middle" font-size="10.5" font-weight="600" fill="#1a1a2e">Colação de Dados</text><rect x="780.8" y="402" width="183.2" height="110" rx="10" fill="#ffffff" stroke="#d7e3e8" stroke-width="1.4"/><polygon points="872.4,425.14 912.552,445.2 872.4,465.26 832.2479999999999,445.2" fill="#31803a22" stroke="#31803a" stroke-width="2"/><line x1="832.2479999999999" y1="445.2" x2="912.552" y2="445.2" stroke="#31803a" stroke-width="1.6"/><text x="872.4" y="482.96" text-anchor="middle" font-size="10.5" font-weight="600" fill="#1a1a2e">Ordenação de Dados</text><rect x="12" y="526" width="956" height="31" rx="6" fill="#e0eff6"/><text x="24" y="546" font-size="11.5" fill="#1a1a2e">Legenda de referência rápida com as 20 formas de fluxograma/mapa de processo descritas acima.</text></svg>