<svg viewBox="0 0 1040 270" xmlns="http://www.w3.org/2000/svg" font-family="'Segoe UI', Verdana, sans-serif"><rect x="0" y="0" width="1040" height="270" rx="14" fill="#fbfcfc" stroke="#d7e3e8" stroke-width="2"/><rect x="10" y="8" width="1020" height="30" rx="6" fill="#00688f"/><text x="520.0" y="29" text-anchor="middle" font-size="14.5" font-weight="700" fill="#ffffff">Mapa de Fluxo de Valor (simplificado) — Fabricação de Giz de Cera</text><rect x="425.0" y="46" width="190" height="30" rx="6" fill="#fbeddc" stroke="#c2650c" stroke-width="1.8"/><text x="520.0" y="65" text-anchor="middle" font-size="11" font-weight="700" fill="#c2650c">Controle de Produção</text><rect x="34.400000000000006" y="126.0" width="55.199999999999996" height="11.76" fill="#00688f22" stroke="#00688f" stroke-width="2"/><polygon points="34.400000000000006,126.0 50.96000000000001,116.0 50.96000000000001,126.0" fill="#00688f22" stroke="#00688f" stroke-width="1.6"/><polygon points="50.96000000000001,126.0 67.52000000000001,116.0 67.52000000000001,126.0" fill="#00688f22" stroke="#00688f" stroke-width="1.6"/><text x="62.0" y="178" text-anchor="middle" font-size="10" font-weight="700" fill="#00688f">Fornecedores</text><text x="62.0" y="191" text-anchor="middle" font-size="10" font-weight="700" fill="#00688f">(cera, corante,</text><text x="62.0" y="204" text-anchor="middle" font-size="10" font-weight="700" fill="#00688f">papel)</text><rect x="128" y="106" width="94.85714285714286" height="56" rx="8" fill="#e0eff6" stroke="#00688f" stroke-width="1.8"/><text x="175.42857142857144" y="120.0" text-anchor="middle" font-size="10.5" font-weight="600" fill="#1a1a2e">Derreter cera +</text><text x="175.42857142857144" y="134.0" text-anchor="middle" font-size="10.5" font-weight="600" fill="#1a1a2e">adicionar</text><text x="175.42857142857144" y="148.0" text-anchor="middle" font-size="10.5" font-weight="600" fill="#1a1a2e">corante</text><line x1="222.85714285714286" y1="134.0" x2="238.85714285714286" y2="134.0" stroke="#1a1a2e" stroke-width="2"/><polygon points="238.85714285714286,129.0 245.85714285714286,134.0 238.85714285714286,139.0" fill="#1a1a2e"/><rect x="242.85714285714286" y="106" width="94.85714285714286" height="56" rx="8" fill="#e0eff6" stroke="#00688f" stroke-width="1.8"/><text x="290.2857142857143" y="127.0" text-anchor="middle" font-size="10.5" font-weight="600" fill="#1a1a2e">Despejar em</text><text x="290.2857142857143" y="141.0" text-anchor="middle" font-size="10.5" font-weight="600" fill="#1a1a2e">moldes</text><line x1="337.7142857142857" y1="134.0" x2="353.7142857142857" y2="134.0" stroke="#1a1a2e" stroke-width="2"/><polygon points="353.7142857142857,129.0 360.7142857142857,134.0 353.7142857142857,139.0" fill="#1a1a2e"/><line x1="290.2857142857143" y1="76" x2="290.2857142857143" y2="106" stroke="#c2650c" stroke-width="1.2" stroke-dasharray="3,3"/><rect x="357.7142857142857" y="106" width="94.85714285714286" height="56" rx="8" fill="#e0eff6" stroke="#00688f" stroke-width="1.8"/><text x="405.14285714285717" y="127.0" text-anchor="middle" font-size="10.5" font-weight="600" fill="#1a1a2e">Esvaziar</text><text x="405.14285714285717" y="141.0" text-anchor="middle" font-size="10.5" font-weight="600" fill="#1a1a2e">moldes</text><line x1="452.57142857142856" y1="134.0" x2="468.57142857142856" y2="134.0" stroke="#1a1a2e" stroke-width="2"/><polygon points="468.57142857142856,129.0 475.57142857142856,134.0 468.57142857142856,139.0" fill="#1a1a2e"/><rect x="472.57142857142856" y="106" width="94.85714285714286" height="56" rx="8" fill="#e0eff6" stroke="#00688f" stroke-width="1.8"/><text x="520.0" y="134.0" text-anchor="middle" font-size="10.5" font-weight="600" fill="#1a1a2e">Inspeção</text><line x1="567.4285714285714" y1="134.0" x2="583.4285714285714" y2="134.0" stroke="#1a1a2e" stroke-width="2"/><polygon points="583.4285714285714,129.0 590.4285714285714,134.0 583.4285714285714,139.0" fill="#1a1a2e"/><line x1="520.0" y1="76" x2="520.0" y2="106" stroke="#c2650c" stroke-width="1.2" stroke-dasharray="3,3"/><rect x="587.4285714285714" y="106" width="94.85714285714286" height="56" rx="8" fill="#e0eff6" stroke="#00688f" stroke-width="1.8"/><text x="634.8571428571429" y="134.0" text-anchor="middle" font-size="10.5" font-weight="600" fill="#1a1a2e">Embrulhar</text><line x1="682.2857142857143" y1="134.0" x2="698.2857142857143" y2="134.0" stroke="#1a1a2e" stroke-width="2"/><polygon points="698.2857142857143,129.0 705.2857142857143,134.0 698.2857142857143,139.0" fill="#1a1a2e"/><rect x="702.2857142857143" y="106" width="94.85714285714286" height="56" rx="8" fill="#e0eff6" stroke="#00688f" stroke-width="1.8"/><text x="749.7142857142858" y="127.0" text-anchor="middle" font-size="10.5" font-weight="600" fill="#1a1a2e">Empacotar</text><text x="749.7142857142858" y="141.0" text-anchor="middle" font-size="10.5" font-weight="600" fill="#1a1a2e">(caixas de 8)</text><line x1="797.1428571428572" y1="134.0" x2="813.1428571428572" y2="134.0" stroke="#1a1a2e" stroke-width="2"/><polygon points="813.1428571428572,129.0 820.1428571428572,134.0 813.1428571428572,139.0" fill="#1a1a2e"/><line x1="749.7142857142858" y1="76" x2="749.7142857142858" y2="106" stroke="#c2650c" stroke-width="1.2" stroke-dasharray="3,3"/><rect x="817.1428571428572" y="106" width="94.85714285714286" height="56" rx="8" fill="#e0eff6" stroke="#00688f" stroke-width="1.8"/><text x="864.5714285714287" y="134.0" text-anchor="middle" font-size="10.5" font-weight="600" fill="#1a1a2e">Enviar</text><line x1="912.0000000000001" y1="134.0" x2="928.0000000000001" y2="134.0" stroke="#1a1a2e" stroke-width="2"/><polygon points="928.0000000000001,129.0 935.0000000000001,134.0 928.0000000000001,139.0" fill="#1a1a2e"/><rect x="950.4000000000001" y="126.0" width="55.199999999999996" height="11.76" fill="#31803a22" stroke="#31803a" stroke-width="2"/><polygon points="950.4000000000001,126.0 966.96,116.0 966.96,126.0" fill="#31803a22" stroke="#31803a" stroke-width="1.6"/><polygon points="966.96,126.0 983.5200000000001,116.0 983.5200000000001,126.0" fill="#31803a22" stroke="#31803a" stroke-width="1.6"/><text x="978.0000000000001" y="178" text-anchor="middle" font-size="10" font-weight="700" fill="#31803a">Cliente (varejo)</text><polygon points="692.2857142857143,73.0 705.2857142857143,95.0 679.2857142857143,95.0" fill="#c2650c22" stroke="#c2650c" stroke-width="2"/><text x="692.2857142857143" y="91.04" text-anchor="middle" font-size="11" font-weight="800" fill="#c2650c">I</text><text x="692.2857142857143" y="66" text-anchor="middle" font-size="9" font-weight="700" fill="#c2650c">estoque</text><rect x="16" y="214" width="1008" height="46" rx="6" fill="#e5f4e7"/><text x="26" y="234" font-size="11.5" fill="#1a1a2e">Versao completa: inclui fontes externas (fornecedores/cliente), controle de producao (fluxo de informacao eletronico tracejado) e o sinal de estoque</text><text x="26" y="249" font-size="11.5" fill="#1a1a2e">que se acumula antes do empacotamento, etapa mais lenta que a inspecao e o embrulho.</text></svg>