<svg viewBox="0 0 820 364" xmlns="http://www.w3.org/2000/svg" font-family="'Segoe UI', Verdana, sans-serif"><rect x="0" y="0" width="820" height="364" rx="14" fill="#fbfcfc" stroke="#d7e3e8" stroke-width="2"/><text x="410.0" y="24" text-anchor="middle" font-size="15" font-weight="700" fill="#00688f">Menos Desvio vs. Mais Desvio</text><rect x="16" y="40" width="386.0" height="230" fill="#ffffff" stroke="#1a1a2e" stroke-width="2"/><line x1="209.0" y1="44" x2="209.0" y2="266" stroke="#1a1a2e" stroke-width="2.4"/><circle cx="203.99430195046276" cy="48.200234546952956" r="4" fill="#31803a"/><circle cx="202.99332892448302" cy="57.33114045064513" r="4" fill="#31803a"/><circle cx="204.5675830213825" cy="72.22834563254786" r="4" fill="#31803a"/><circle cx="156.98194238579515" cy="75.33187429739897" r="4" fill="#31803a"/><circle cx="201.46285531279594" cy="85.930921980247" r="4" fill="#31803a"/><circle cx="213.0258374899877" cy="97.77011503209962" r="4" fill="#31803a"/><circle cx="231.81155224618576" cy="108.47180277496346" r="4" fill="#31803a"/><circle cx="212.83901934439874" cy="117.17771366300755" r="4" fill="#31803a"/><circle cx="217.55792786163715" cy="128.83908001705896" r="4" fill="#31803a"/><circle cx="254.54694793706864" cy="131.96108098651538" r="4" fill="#31803a"/><circle cx="227.4739058967262" cy="144.17654958668936" r="4" fill="#31803a"/><circle cx="158.50383634717852" cy="152.24383599849426" r="4" fill="#31803a"/><circle cx="239.34206834808197" cy="161.28742129249574" r="4" fill="#31803a"/><circle cx="200.6405251719606" cy="170.8646401055768" r="4" fill="#31803a"/><circle cx="236.17803333436453" cy="186.09338982255866" r="4" fill="#31803a"/><circle cx="170.32666027701848" cy="195.01967247536874" r="4" fill="#31803a"/><circle cx="117.98309603211707" cy="201.75554774493955" r="4" fill="#31803a"/><circle cx="187.91661610234928" cy="212.68905232291308" r="4" fill="#31803a"/><circle cx="232.07659735255197" cy="224.71183702066804" r="4" fill="#31803a"/><circle cx="166.64934348738754" cy="231.98245352569046" r="4" fill="#31803a"/><circle cx="206.00388877827749" cy="238.7322771143033" r="4" fill="#31803a"/><circle cx="198.78992171379008" cy="248.76964916336232" r="4" fill="#31803a"/><text x="209.0" y="294" text-anchor="middle" font-size="13" font-weight="700" fill="#1a1a2e">Menos desvio</text><rect x="418.0" y="40" width="386.0" height="230" fill="#ffffff" stroke="#1a1a2e" stroke-width="2"/><line x1="611.0" y1="44" x2="611.0" y2="266" stroke="#1a1a2e" stroke-width="2.4"/><circle cx="689.8568714386827" cy="46.808011435277834" r="4" fill="#a5203a"/><circle cx="654.2178077828846" cy="57.76924337033528" r="4" fill="#a5203a"/><circle cx="533.554755336075" cy="68.05235682784415" r="4" fill="#a5203a"/><circle cx="522.3903224917764" cy="76.31241988253554" r="4" fill="#a5203a"/><circle cx="580.1057246704031" cy="89.36610126379094" r="4" fill="#a5203a"/><circle cx="790.0" cy="98.60032077260863" r="4" fill="#a5203a"/><circle cx="705.9218486308168" cy="104.57994722282271" r="4" fill="#a5203a"/><circle cx="786.6269096955449" cy="115.85382535224299" r="4" fill="#a5203a"/><circle cx="787.1821316136559" cy="126.81923431383353" r="4" fill="#a5203a"/><circle cx="599.3857261624662" cy="137.3860049170099" r="4" fill="#a5203a"/><circle cx="728.7016839437435" cy="143.28693003025828" r="4" fill="#a5203a"/><circle cx="432.67684328120987" cy="151.2568019512323" r="4" fill="#a5203a"/><circle cx="572.0180558022154" cy="162.23331729414517" r="4" fill="#a5203a"/><circle cx="700.3830229561872" cy="177.63418680558954" r="4" fill="#a5203a"/><circle cx="687.5784186753377" cy="184.87987295872267" r="4" fill="#a5203a"/><circle cx="535.7264847884089" cy="192.3468733903035" r="4" fill="#a5203a"/><circle cx="728.6248301084502" cy="200.84631405925714" r="4" fill="#a5203a"/><circle cx="540.9848082438117" cy="210.24574733427914" r="4" fill="#a5203a"/><circle cx="521.6378513947383" cy="222.49486973997014" r="4" fill="#a5203a"/><circle cx="574.7273683339394" cy="234.54621943245618" r="4" fill="#a5203a"/><circle cx="540.8731983660628" cy="244.8893917610518" r="4" fill="#a5203a"/><circle cx="662.3547973015793" cy="250.5307558039572" r="4" fill="#a5203a"/><text x="611.0" y="294" text-anchor="middle" font-size="13" font-weight="700" fill="#1a1a2e">Mais desvio</text><rect x="16" y="310" width="788" height="44" rx="6" fill="#e0eff6"/><text x="26" y="328" font-size="11.5" fill="#1a1a2e">Pontos mais próximos da linha central (média) indicam um processo mais consistente e previsível</text><text x="26" y="343" font-size="11.5" fill="#1a1a2e">— o objetivo central da redução de variação no Six Sigma.</text></svg>