<svg viewBox="0 0 920 257.0" xmlns="http://www.w3.org/2000/svg" font-family="'Segoe UI', Verdana, sans-serif"><rect x="0" y="0" width="920" height="257.0" rx="14" fill="#fbfcfc" stroke="#d7e3e8" stroke-width="2"/><text x="18" y="26" font-size="13.5" font-weight="700" fill="#6b6459" letter-spacing=".4">FATORIAL 2³ COM INTERAÇÕES</text><line x1="16" y1="36" x2="904" y2="36" stroke="#d7e3e8" stroke-width="2"/><g transform="translate(16,42)"><rect x="0" y="0" width="436" height="211" rx="14" fill="#fbfcfc" stroke="#d7e3e8" stroke-width="2"/><rect x="18" y="16" width="22" height="22" rx="4" fill="#1e7a3f"/><text x="29.0" y="32.0" text-anchor="middle" font-size="13.64" font-weight="800" fill="#ffffff" font-family="'Segoe UI', Verdana, sans-serif">X</text><text x="48" y="33" font-size="15" font-weight="700" fill="#1a1a2e">Excel 365 — caminho de menu</text><line x1="16" y1="48" x2="420" y2="48" stroke="#d7e3e8" stroke-width="2"/><rect x="18" y="66" width="58" height="30" rx="7" fill="#e5f4e7" stroke="#31803a" stroke-width="1.4"/><text x="47.0" y="85.5" text-anchor="middle" font-size="11.5" fill="#31803a" font-weight="600">Dados</text><text x="86" y="86.0" font-size="15" fill="#6b6459">&#8594;</text><rect x="102" y="66" width="135.2" height="30" rx="7" fill="#e5f4e7" stroke="#31803a" stroke-width="1.4"/><text x="169.6" y="85.5" text-anchor="middle" font-size="11.5" fill="#31803a" font-weight="600">Análise de Dados</text><text x="247.2" y="86.0" font-size="15" fill="#6b6459">&#8594;</text><rect x="263.2" y="66" width="84.8" height="30" rx="7" fill="#e5f4e7" stroke="#31803a" stroke-width="1.4"/><text x="305.59999999999997" y="85.5" text-anchor="middle" font-size="11.5" fill="#31803a" font-weight="600">Regressão</text><rect x="16" y="106" width="404" height="89" rx="6" fill="#e5f4e7"/><text x="24" y="122" font-size="11.5" fill="#1a1a2e">monte a matriz de delineamento (colunas</text><text x="24" y="137" font-size="11.5" fill="#1a1a2e">A, B, C em −1/+1) e as colunas de</text><text x="24" y="152" font-size="11.5" fill="#1a1a2e">interação (A×B, A×C, B×C, A×B×C são</text><text x="24" y="167" font-size="11.5" fill="#1a1a2e">apenas produtos das colunas), depois</text><text x="24" y="182" font-size="11.5" fill="#1a1a2e">rode Dados → …</text></g><g transform="translate(468.0,42)"><rect x="0" y="0" width="436" height="210" rx="14" fill="#fbfcfc" stroke="#d7e3e8" stroke-width="2"/><rect x="18" y="16" width="22" height="22" rx="4" fill="#f2c811"/><text x="29.0" y="32.0" text-anchor="middle" font-size="11.0" font-weight="800" fill="#252423" font-family="'Segoe UI', Verdana, sans-serif">fx</text><text x="48" y="33" font-size="15" font-weight="700" fill="#1a1a2e">Power BI (DAX)</text><line x1="16" y1="48" x2="420" y2="48" stroke="#d7e3e8" stroke-width="2"/><rect x="16" y="58" width="404" height="88" rx="7" fill="#fffef6" stroke="#c2650c" stroke-width="1.6"/><text x="26" y="78" font-size="12" font-family="Consolas, 'Courier New', monospace" fill="#00688f">Efeito A (importado) = 1.2456</text><text x="26" y="96" font-size="12" font-family="Consolas, 'Courier New', monospace" fill="#00688f">Efeito B (importado) = 0.3756</text><text x="26" y="114" font-size="12" font-family="Consolas, 'Courier New', monospace" fill="#00688f">Efeito AB (importado) = 0.2094</text><text x="26" y="132" font-size="12" font-family="Consolas, 'Courier New', monospace" fill="#00688f">Efeito C (importado) = -0.1031</text><rect x="16" y="150" width="404" height="44" rx="6" fill="#fbeddc"/><text x="24" y="166" font-size="11.5" fill="#1a1a2e">Cálculo nativo em DAX, aplicado como</text><text x="24" y="181" font-size="11.5" fill="#1a1a2e">medida do relatório.</text></g><line x1="460.0" y1="46" x2="460.0" y2="251.0" stroke="#d7e3e8" stroke-width="2" stroke-dasharray="4,4"/></svg>