<svg viewBox="0 0 920 463.0" xmlns="http://www.w3.org/2000/svg" font-family="'Segoe UI', Verdana, sans-serif"><rect x="0" y="0" width="920" height="463.0" rx="14" fill="#fbfcfc" stroke="#d7e3e8" stroke-width="2"/><text x="18" y="26" font-size="13.5" font-weight="700" fill="#6b6459" letter-spacing=".4">GAGE R&amp;R DE VARIÁVEL (MÉTODO ANOVA)</text><line x1="16" y1="36" x2="904" y2="36" stroke="#d7e3e8" stroke-width="2"/><g transform="translate(16,42)"><rect x="0" y="0" width="436" height="248" rx="14" fill="#fbfcfc" stroke="#d7e3e8" stroke-width="2"/><rect x="18" y="16" width="22" height="22" rx="4" fill="#1e7a3f"/><text x="29.0" y="32.0" text-anchor="middle" font-size="13.64" font-weight="800" fill="#ffffff" font-family="'Segoe UI', Verdana, sans-serif">X</text><text x="48" y="33" font-size="15" font-weight="700" fill="#1a1a2e">Excel 365 — caminho de menu</text><line x1="16" y1="48" x2="420" y2="48" stroke="#d7e3e8" stroke-width="2"/><rect x="18" y="66" width="58" height="30" rx="7" fill="#e5f4e7" stroke="#31803a" stroke-width="1.4"/><text x="47.0" y="85.5" text-anchor="middle" font-size="11.5" fill="#31803a" font-weight="600">Dados</text><text x="86" y="86.0" font-size="15" fill="#6b6459">&#8594;</text><rect x="102" y="66" width="135.2" height="30" rx="7" fill="#e5f4e7" stroke="#31803a" stroke-width="1.4"/><text x="169.6" y="85.5" text-anchor="middle" font-size="11.5" fill="#31803a" font-weight="600">Análise de Dados</text><text x="247.2" y="86.0" font-size="15" fill="#6b6459">&#8594;</text><rect x="18" y="118" width="250.4" height="30" rx="7" fill="#e5f4e7" stroke="#31803a" stroke-width="1.4"/><text x="143.2" y="137.5" text-anchor="middle" font-size="11.5" fill="#31803a" font-weight="600">Anova: fator duplo com repetição</text><rect x="16" y="158" width="404" height="74" rx="6" fill="#e5f4e7"/><text x="24" y="174" font-size="11.5" fill="#1a1a2e">cole os dados em 10 blocos de 3 colunas</text><text x="24" y="189" font-size="11.5" fill="#1a1a2e">(uma por operador, 2 linhas de repetição</text><text x="24" y="204" font-size="11.5" fill="#1a1a2e">por peça) e use Dados → Análise de Dados</text><text x="24" y="219" font-size="11.5" fill="#1a1a2e">→ Anova: fator duplo com repetição (*D…</text></g><g transform="translate(468.0,42)"><rect x="0" y="0" width="436" height="417" rx="14" fill="#fbfcfc" stroke="#d7e3e8" stroke-width="2"/><rect x="18" y="16" width="22" height="22" rx="4" fill="#f2c811"/><text x="29.0" y="32.0" text-anchor="middle" font-size="11.0" font-weight="800" fill="#252423" font-family="'Segoe UI', Verdana, sans-serif">fx</text><text x="48" y="33" font-size="15" font-weight="700" fill="#1a1a2e">Power BI (DAX)</text><line x1="16" y1="48" x2="420" y2="48" stroke="#d7e3e8" stroke-width="2"/><rect x="16" y="58" width="404" height="250" rx="7" fill="#fffef6" stroke="#c2650c" stroke-width="1.6"/><text x="26" y="78" font-size="12" font-family="Consolas, 'Courier New', monospace" fill="#00688f">% Contribuição GageRR (importado) =</text><text x="26" y="96" font-size="12" font-family="Consolas, 'Courier New', monospace" fill="#1a1a2e">1.11   // valor calculado em</text><text x="26" y="114" font-size="12" font-family="Consolas, 'Courier New', monospace" fill="#1a1a2e">R/Python, ver abaixo</text><text x="26" y="132" font-size="12" font-family="Consolas, 'Courier New', monospace" fill="#1a1a2e">% Variação do Estudo GageRR</text><text x="26" y="150" font-size="12" font-family="Consolas, 'Courier New', monospace" fill="#00688f">(importado) = 10.56</text><text x="26" y="168" font-size="12" font-family="Consolas, 'Courier New', monospace" fill="#00688f">ndc (importado) = 13</text><text x="26" y="186" font-size="12" font-family="Consolas, 'Courier New', monospace" fill="#00688f">Status MSA =</text><text x="26" y="204" font-size="12" font-family="Consolas, 'Courier New', monospace" fill="#1a1a2e">IF ( [% Variação do Estudo GageRR</text><text x="26" y="222" font-size="12" font-family="Consolas, 'Courier New', monospace" fill="#1a1a2e">(importado)] &lt; 10, &quot;Aprovado&quot;,</text><text x="26" y="240" font-size="12" font-family="Consolas, 'Courier New', monospace" fill="#1a1a2e">    IF ( [% Variação do Estudo</text><text x="26" y="258" font-size="12" font-family="Consolas, 'Courier New', monospace" fill="#1a1a2e">GageRR (importado)] &lt; 30, &quot;Cautela&quot;,</text><text x="26" y="276" font-size="12" font-family="Consolas, 'Courier New', monospace" fill="#1a1a2e">&quot;Reprovado&quot; )</text><text x="26" y="294" font-size="12" font-family="Consolas, 'Courier New', monospace" fill="#1a1a2e">)</text><rect x="16" y="312" width="404" height="89" rx="6" fill="#fbeddc"/><text x="24" y="328" font-size="11.5" fill="#1a1a2e">Essas medidas assumem os números já</text><text x="24" y="343" font-size="11.5" fill="#1a1a2e">calculados como constantes/parâmetros</text><text x="24" y="358" font-size="11.5" fill="#1a1a2e">importados (ou vindos de uma tabela de</text><text x="24" y="373" font-size="11.5" fill="#1a1a2e">resultados carregada de fora) — um</text><text x="24" y="388" font-size="11.5" fill="#1a1a2e">cartão de st…</text></g><line x1="460.0" y1="46" x2="460.0" y2="457.0" stroke="#d7e3e8" stroke-width="2" stroke-dasharray="4,4"/></svg>